<?xml version="1.0" standalone="no"?>
<!DOCTYPE svg PUBLIC "-//W3C//DTD SVG 20010904//EN"
 "http://www.w3.org/TR/2001/REC-SVG-20010904/DTD/svg10.dtd">
<svg version="1.0" xmlns="http://www.w3.org/2000/svg"
 width="32.000000pt" height="32.000000pt" viewBox="0 0 32.000000 32.000000"
 preserveAspectRatio="xMidYMid meet">

<g transform="translate(0.000000,32.000000) scale(0.100000,-0.100000)"
fill="#000000" stroke="none">
<path d="M70 282 c-19 -15 -23 -30 -25 -86 -1 -38 -7 -71 -13 -75 -6 -4 -14
-33 -18 -64 l-7 -58 99 3 c79 2 99 6 100 18 0 9 -1 10 -3 2 -3 -7 -9 -9 -15
-6 -13 8 -144 8 -157 -1 -7 -4 -11 4 -11 19 0 14 5 26 10 26 6 0 10 14 10 30
l0 30 70 0 70 0 0 -30 c0 -16 5 -30 10 -30 15 0 12 57 -4 63 -9 4 -12 17 -9
42 11 101 -48 165 -107 117z m78 -82 c-7 -49 -69 -52 -76 -4 -2 15 6 22 30 30
39 12 51 5 46 -26z m-18 -60 c0 -5 -9 -10 -20 -10 -11 0 -20 5 -20 10 0 6 9
10 20 10 11 0 20 -4 20 -10z"/>
<path d="M230 270 c-14 -27 -3 -63 17 -56 8 3 21 6 29 6 8 0 14 9 14 21 0 11
5 17 10 14 14 -9 13 8 -2 23 -19 19 -56 14 -68 -8z m53 3 c-7 -2 -21 -2 -30 0
-10 3 -4 5 12 5 17 0 24 -2 18 -5z m-46 -35 c-3 -8 -6 -5 -6 6 -1 11 2 17 5
13 3 -3 4 -12 1 -19z"/>
<path d="M297 226 c-3 -8 -16 -16 -29 -19 -21 -4 -21 -4 -2 -6 21 -1 52 24 42
35 -3 3 -8 -2 -11 -10z"/>
<path d="M236 181 c-3 -4 6 -6 19 -3 14 2 33 -2 43 -9 15 -13 16 -12 3 4 -14
18 -56 23 -65 8z"/>
<path d="M221 150 c0 -8 4 -22 9 -30 12 -18 12 -2 0 25 -6 13 -9 15 -9 5z"/>
<path d="M244 149 c-2 -4 1 -11 7 -15 6 -3 15 -1 19 6 6 10 9 9 13 -1 4 -10 6
-9 6 3 1 17 -35 22 -45 7z"/>
<path d="M297 126 c-3 -8 -16 -16 -29 -19 -21 -4 -21 -4 -2 -6 21 -1 52 24 42
35 -3 3 -8 -2 -11 -10z"/>
<path d="M230 75 c-19 -22 -4 -64 25 -71 26 -6 55 9 55 30 0 6 -5 4 -10 -4 -7
-12 -10 -8 -10 15 0 23 3 27 10 15 5 -8 10 -10 10 -4 0 32 -58 46 -80 19z m7
-37 c-3 -7 -5 -2 -5 12 0 14 2 19 5 13 2 -7 2 -19 0 -25z m40 -24 c-3 -3 -12
-4 -19 -1 -8 3 -5 6 6 6 11 1 17 -2 13 -5z"/>
</g>
</svg>
